<?xml version="1.0" encoding="UTF-8" standalone="no" ?>
<!DOCTYPE svg PUBLIC "-//W3C//DTD SVG 1.1//EN" "http://www.w3.org/Graphics/SVG/1.1/DTD/svg11.dtd">
<svg xmlns="http://www.w3.org/2000/svg" xmlns:xlink="http://www.w3.org/1999/xlink" version="1.1" width="1080" height="1080" viewBox="0 0 1080 1080" xml:space="preserve">
<desc>Created with Fabric.js 5.2.4</desc>
<defs>
</defs>
<g transform="matrix(1 0 0 1 540 540)" id="b3d3f50d-10b3-4cdc-b207-9b1ee299d947"  >
<rect style="stroke: none; stroke-width: 1; stroke-dasharray: none; stroke-linecap: butt; stroke-dashoffset: 0; stroke-linejoin: miter; stroke-miterlimit: 4; fill: rgb(255,255,255); fill-rule: nonzero; opacity: 1; visibility: hidden;" vector-effect="non-scaling-stroke"  x="-540" y="-540" rx="0" ry="0" width="1080" height="1080" />
</g>
<g transform="matrix(1 0 0 1 540 540)" id="226565ad-fbda-48e6-8080-7e077f2861ca"  >
</g>
<g transform="matrix(2.17 0 0 2.17 541.77 541.17)"  >
<path style="stroke: none; stroke-width: 1; stroke-dasharray: none; stroke-linecap: butt; stroke-dashoffset: 0; stroke-linejoin: miter; stroke-miterlimit: 4; fill: rgb(239,181,102); fill-rule: nonzero; opacity: 1;" vector-effect="non-scaling-stroke"  transform=" translate(-251.25, -250.97)" d="M 97.171677 387.871521 C 97.171669 387.871521 97.031563 387.520813 96.870972 387.106506 C 96.444954 386.462555 96.179535 386.23288 95.914108 386.003204 C 95.914108 386.003204 95.99736 386.003998 95.85289 385.828674 C 95.439323 385.437286 95.170212 385.221252 94.901108 385.005219 C 94.9011 385.005219 94.970917 385.016083 94.954941 384.685028 C 93.678482 383.191223 92.418015 382.028473 91.157532 380.865753 C 77.307777 363.720337 65.573227 345.363251 59.005749 324.107361 C 55.396282 312.425232 51.644699 300.768738 48.621498 288.931061 C 47.016747 282.64743 46.65015 276.018066 46.055386 269.514526 C 45.484612 263.273346 45.01318 256.989838 45.074841 250.730606 C 45.224865 235.501923 47.255753 220.572708 50.431087 205.579147 C 54.26757 187.46373 60.471851 170.457428 69.096756 154.298325 C 73.305206 146.41362 79.119148 139.403168 83.715416 131.703903 C 90.085594 121.03318 98.084114 111.699997 107.218941 103.500359 C 115.446457 96.115128 124.467972 89.585678 133.371552 82.992439 C 139.359543 78.55822 145.579544 74.377586 151.997238 70.595039 C 168.397659 60.928768 186.12059 54.393646 204.594177 50.102543 C 221.597107 46.153049 238.91922 44.347286 256.401306 45.050537 C 280.814941 46.032631 304.537933 50.41853 327.287994 59.671684 C 345.414276 67.044205 362.420135 76.450745 377.798096 88.448105 C 399.485962 105.368225 416.965698 126.01339 430.613708 150.017746 C 441.96698 169.985977 449.373596 191.326385 453.693329 213.68808 C 456.886993 230.22049 458.419739 247.164246 456.733246 263.923767 C 455.20813 279.079651 452.650024 294.309753 448.631256 308.98233 C 445.167297 321.629242 439.943726 334.036011 433.781006 345.63678 C 427.053986 358.299835 419.460022 370.856232 410.210785 381.729645 C 400.221649 393.472839 388.117401 403.485168 376.465302 413.716675 C 370.654358 418.819092 363.993134 423.051575 357.369659 427.111725 C 337.959198 439.010193 317.183411 447.414337 294.787262 452.144226 C 277.94574 455.701019 261.067169 457.40152 243.920975 456.980042 C 227.522919 456.576935 211.380905 454.111481 195.778549 449.205078 C 183.461334 445.331726 171.069412 441.190704 159.509781 435.535187 C 143.276627 427.59317 127.883003 418.002136 114.746178 405.266083 C 112.033524 402.6362 109.090637 400.243805 106.094002 397.073792 C 104.932976 395.614105 103.931808 394.822601 102.930641 394.031097 C 102.930641 394.031097 102.994492 394.013855 102.851685 393.832062 C 102.441948 393.43515 102.175018 393.220032 101.908096 393.004883 C 101.908096 393.004883 101.997116 393.003143 101.850769 392.832397 C 101.437263 392.442413 101.170105 392.223145 100.902954 392.003906 C 100.902946 392.003906 100.997459 392.003235 100.851242 391.834473 C 100.438614 391.445068 100.172211 391.224396 99.905807 391.003754 C 99.9058 391.003754 99.975334 391.013062 99.955826 390.697357 C 99.014778 389.544922 98.093231 388.708221 97.171677 387.871521 M 350.44632 141.157013 C 350.44632 141.157013 350.083801 140.933578 349.962006 140.261703 C 348.003174 138.25354 346.253448 135.973557 344.052307 134.280426 C 327.217896 121.33136 307.997772 115.315979 286.885651 115.194336 C 268.730286 115.089729 250.573776 115.193558 232.417786 115.18737 C 210.93045 115.180054 189.442322 115.035362 167.956024 115.176033 C 153.089462 115.273361 143.462097 128.035858 147.082214 142.432816 C 150.160751 154.675934 162.494553 160.794006 177.771286 157.289383 C 178.76796 157.284134 179.764633 157.27887 181.238556 157.862183 C 190.212662 158.00116 199.186676 158.151733 208.16127 158.236191 C 208.516479 158.239532 208.877609 157.613297 210.137772 157.305481 C 215.013367 157.297195 219.888962 157.288895 225.242172 157.86731 C 235.215103 158.004837 245.187958 158.152832 255.161362 158.237015 C 255.515991 158.240005 255.875977 157.611099 257.140472 157.302292 C 264.34201 157.306549 271.543518 157.310806 279.235809 157.890396 C 282.501617 158.194504 285.769653 158.775681 289.032806 158.749451 C 297.931122 158.677963 306.254547 160.972321 313.74472 165.467468 C 319.39447 168.858109 324.405304 173.313339 329.875549 177.968979 C 330.147583 178.575638 330.299072 179.282928 330.709167 179.774338 C 343.40921 194.99173 346.823608 212.629959 344.079742 231.770615 C 341.99408 246.319794 335.230499 258.708496 324.583496 268.559814 C 313.511505 278.804413 299.819183 283.078217 284.773987 283.069 C 272.945221 283.061737 261.092316 282.667664 249.29895 283.323303 C 244.211807 283.60611 238.604309 285.101715 234.371323 287.819214 C 227.138458 292.462555 224.331436 303.370972 227.007324 311.005768 C 230.191315 320.09024 237.798416 325.775208 247.401749 325.856476 C 261.395355 325.974915 275.41272 326.350067 289.377136 325.698334 C 297.764069 325.306885 306.371735 324.134888 314.35321 321.632751 C 335.586395 314.976288 352.875946 302.442657 365.77179 284.102905 C 377.932068 266.809174 384.977417 247.802994 385.909973 226.53067 C 386.988831 201.920639 380.801941 179.412399 367.225342 158.922729 C 366.188263 157.357605 364.474609 156.240753 362.879517 154.538071 C 362.879517 154.538071 362.652435 154.178223 362.708069 153.500702 C 361.497589 152.30217 360.28714 151.103653 358.740417 149.397568 C 358.043365 148.659988 357.346313 147.922394 356.690979 146.496338 C 354.723969 144.800415 352.756927 143.104492 350.44632 141.157013 M 159.512268 222.083694 C 151.694138 232.396637 146.305405 243.832474 146.198807 256.893036 C 145.909164 292.382599 145.98616 327.876465 146.193344 363.367035 C 146.217804 367.557098 147.543015 371.886658 148.988113 375.890686 C 151.992752 384.21579 167.272537 390.661133 177.66954 383.822205 C 185.140259 378.908112 187.846848 371.770813 187.866302 363.335419 C 187.941574 330.676392 187.918259 298.01709 187.93367 265.35791 C 187.941193 249.428802 194.458466 242.84552 210.138809 242.85553 C 234.300018 242.870941 258.461273 242.87738 282.622437 242.847961 C 290.289276 242.838638 297.057983 240.664764 302.026093 234.386444 C 307.213013 227.831619 308.457977 220.475571 305.57019 212.77623 C 302.762756 205.290924 297.304749 200.219467 289.161407 199.123886 C 283.578308 198.372757 277.880951 198.179077 272.238007 198.218445 C 253.093018 198.351898 233.94986 198.730194 214.805206 198.942551 C 210.506027 198.990234 206.148178 198.247818 201.912384 198.720612 C 184.89415 200.620117 171.162537 208.786072 159.512268 222.083694 z" stroke-linecap="round" />
</g>
<g transform="matrix(2.17 0 0 2.17 199.07 827.07)"  >
<path style="stroke: none; stroke-width: 1; stroke-dasharray: none; stroke-linecap: butt; stroke-dashoffset: 0; stroke-linejoin: miter; stroke-miterlimit: 4; fill: rgb(223,185,123); fill-rule: nonzero; opacity: 1;" vector-effect="non-scaling-stroke"  transform=" translate(-93.04, -382.96)" d="M 91.127739 381.202576 C 92.418015 382.028473 93.678482 383.191223 94.947403 384.719543 C 93.669884 383.903198 92.383911 382.721283 91.127739 381.202576 z" stroke-linecap="round" />
</g>
<g transform="matrix(2.17 0 0 2.17 223.91 854.33)"  >
<path style="stroke: none; stroke-width: 1; stroke-dasharray: none; stroke-linecap: butt; stroke-dashoffset: 0; stroke-linejoin: miter; stroke-miterlimit: 4; fill: rgb(223,185,123); fill-rule: nonzero; opacity: 1;" vector-effect="non-scaling-stroke"  transform=" translate(-104.51, -395.55)" d="M 103.049118 394.326294 C 103.931808 394.822601 104.932976 395.614105 105.962303 396.770996 C 105.049515 396.298065 104.108559 395.459778 103.049118 394.326294 z" stroke-linecap="round" />
</g>
<g transform="matrix(2.17 0 0 2.17 210.99 841.15)"  >
<path style="stroke: none; stroke-width: 1; stroke-dasharray: none; stroke-linecap: butt; stroke-dashoffset: 0; stroke-linejoin: miter; stroke-miterlimit: 4; fill: rgb(223,185,123); fill-rule: nonzero; opacity: 1;" vector-effect="non-scaling-stroke"  transform=" translate(-98.54, -389.47)" d="M 97.130768 388.198792 C 98.093231 388.708221 99.014778 389.544922 99.948715 390.731689 C 99.004021 390.229858 98.046936 389.37796 97.130768 388.198792 z" stroke-linecap="round" />
</g>
<g transform="matrix(2.17 0 0 2.17 204.23 832.71)"  >
<path style="stroke: none; stroke-width: 1; stroke-dasharray: none; stroke-linecap: butt; stroke-dashoffset: 0; stroke-linejoin: miter; stroke-miterlimit: 4; fill: rgb(223,185,123); fill-rule: nonzero; opacity: 1;" vector-effect="non-scaling-stroke"  transform=" translate(-95.42, -385.57)" d="M 94.987679 385.268555 C 95.170212 385.221252 95.439323 385.437286 95.852386 385.8703 C 95.68898 385.90213 95.381615 385.71701 94.987679 385.268555 z" stroke-linecap="round" />
</g>
<g transform="matrix(2.17 0 0 2.17 206.4 834.94)"  >
<path style="stroke: none; stroke-width: 1; stroke-dasharray: none; stroke-linecap: butt; stroke-dashoffset: 0; stroke-linejoin: miter; stroke-miterlimit: 4; fill: rgb(223,185,123); fill-rule: nonzero; opacity: 1;" vector-effect="non-scaling-stroke"  transform=" translate(-96.42, -386.6)" d="M 95.989471 386.273987 C 96.179535 386.23288 96.444954 386.462555 96.847107 386.91922 C 96.677513 386.94574 96.371178 386.74527 95.989471 386.273987 z" stroke-linecap="round" />
</g>
<g transform="matrix(2.17 0 0 2.17 215.06 845.72)"  >
<path style="stroke: none; stroke-width: 1; stroke-dasharray: none; stroke-linecap: butt; stroke-dashoffset: 0; stroke-linejoin: miter; stroke-miterlimit: 4; fill: rgb(223,185,123); fill-rule: nonzero; opacity: 1;" vector-effect="non-scaling-stroke"  transform=" translate(-100.42, -391.57)" d="M 99.989655 391.269165 C 100.172211 391.224396 100.438614 391.445068 100.851456 391.881744 C 100.689774 391.910034 100.381645 391.722321 99.989655 391.269165 z" stroke-linecap="round" />
</g>
<g transform="matrix(2.17 0 0 2.17 217.23 847.88)"  >
<path style="stroke: none; stroke-width: 1; stroke-dasharray: none; stroke-linecap: butt; stroke-dashoffset: 0; stroke-linejoin: miter; stroke-miterlimit: 4; fill: rgb(223,185,123); fill-rule: nonzero; opacity: 1;" vector-effect="non-scaling-stroke"  transform=" translate(-101.42, -392.57)" d="M 100.98793 392.26889 C 101.170105 392.223145 101.437263 392.442413 101.851501 392.876953 C 101.690033 392.906097 101.38147 392.720001 100.98793 392.26889 z" stroke-linecap="round" />
</g>
<g transform="matrix(2.17 0 0 2.17 219.4 850.04)"  >
<path style="stroke: none; stroke-width: 1; stroke-dasharray: none; stroke-linecap: butt; stroke-dashoffset: 0; stroke-linejoin: miter; stroke-miterlimit: 4; fill: rgb(223,185,123); fill-rule: nonzero; opacity: 1;" vector-effect="non-scaling-stroke"  transform=" translate(-102.42, -393.57)" d="M 101.989182 393.270355 C 102.175018 393.220032 102.441948 393.43515 102.853096 393.865112 C 102.688293 393.89856 102.37928 393.717194 101.989182 393.270355 z" stroke-linecap="round" />
</g>
<g transform="matrix(2.17 0 0 2.17 488.27 631.03)"  >
<path style="stroke: none; stroke-width: 1; stroke-dasharray: none; stroke-linecap: butt; stroke-dashoffset: 0; stroke-linejoin: miter; stroke-miterlimit: 4; fill: rgb(177,168,137); fill-rule: nonzero; opacity: 1;" vector-effect="non-scaling-stroke"  transform=" translate(-226.55, -292.46)" d="M 159.764832 221.829712 C 171.162537 208.786072 184.89415 200.620117 201.912384 198.720612 C 206.148178 198.247818 210.506027 198.990234 214.805206 198.942551 C 233.94986 198.730194 253.093018 198.351898 272.238007 198.218445 C 277.880951 198.179077 283.578308 198.372757 289.161407 199.123886 C 297.304749 200.219467 302.762756 205.290924 305.57019 212.77623 C 308.457977 220.475571 307.213013 227.831619 302.026093 234.386444 C 297.057983 240.664764 290.289276 242.838638 282.622437 242.847961 C 258.461273 242.87738 234.300018 242.870941 210.138809 242.85553 C 194.458466 242.84552 187.941193 249.428802 187.93367 265.35791 C 187.918259 298.01709 187.941574 330.676392 187.866302 363.335419 C 187.846848 371.770813 185.140259 378.908112 177.66954 383.822205 C 167.272537 390.661133 151.992752 384.21579 148.988113 375.890686 C 147.543015 371.886658 146.217804 367.557098 146.193344 363.367035 C 145.98616 327.876465 145.909164 292.382599 146.198807 256.893036 C 146.305405 243.832474 151.694138 232.396637 159.764832 221.829712 M 160.96048 225.852783 C 160.96048 225.852783 160.840988 225.866104 160.179276 226.031586 C 159.742859 226.998215 159.306427 227.964844 158.424271 229.245041 C 158.055542 229.834122 157.686813 230.423218 156.999695 231.51355 C 156.852707 231.880203 156.705719 232.246857 155.977768 232.954315 C 153.763916 239.369507 151.550064 245.784698 149.215637 253.034912 C 149.133484 255.006104 149.051315 256.977295 148.517365 259.650299 C 148.359238 261.621399 148.069092 263.592133 148.063797 265.56366 C 148.019806 281.982452 147.993759 298.401489 148.043732 314.820221 C 148.057312 319.280975 148.348068 323.740875 148.418152 329.100647 C 148.625702 334.735504 148.833252 340.370361 148.875031 346.929504 C 148.904587 353.414124 148.748001 359.906189 149.006775 366.381653 C 149.407516 376.409424 157.50679 384.16687 167.060532 383.988403 C 176.638809 383.809479 184.764908 375.311493 184.944061 364.839447 C 185.174469 351.372162 185.16243 337.899567 185.142899 324.429443 C 185.121445 309.636383 184.972717 294.843536 185.018463 279.177673 C 184.921967 277.130493 184.82547 275.083344 184.93045 272.115082 C 185.232437 266.483948 184.760132 260.669983 186.035782 255.268814 C 187.570496 248.770828 190.688431 242.419205 198.383377 241.230316 C 204.256897 240.322845 210.282272 240.131119 216.242599 240.09996 C 238.870148 239.981628 261.499084 240.116058 284.126373 239.972626 C 286.413757 239.95813 288.693359 238.706223 291.682953 237.943527 C 297.031311 236.100143 300.087769 232.345352 302.302246 227.11554 C 304.956757 220.846527 302.963013 211.316132 297.955414 206.620468 C 292.357422 201.37117 285.611694 201.064972 278.834076 201.077469 C 253.856644 201.123535 228.854477 200.858627 203.91243 201.913193 C 189.713181 202.51355 176.779922 207.935501 166.287857 219.095367 C 165.512604 220.045334 164.73735 220.995316 163.507675 222.153976 C 163.321716 222.424179 163.135757 222.694382 162.383392 223.255203 C 161.928436 224.156158 161.473465 225.057129 160.96048 225.852783 z" stroke-linecap="round" />
</g>
<g transform="matrix(2.17 0 0 2.17 660.41 518.47)"  >
<path style="stroke: none; stroke-width: 1; stroke-dasharray: none; stroke-linecap: butt; stroke-dashoffset: 0; stroke-linejoin: miter; stroke-miterlimit: 4; fill: rgb(150,159,149); fill-rule: nonzero; opacity: 1;" vector-effect="non-scaling-stroke"  transform=" translate(-306.02, -240.49)" d="M 363.07547 154.915512 C 364.474609 156.240753 366.188263 157.357605 367.225342 158.922729 C 380.801941 179.412399 386.988831 201.920639 385.909973 226.53067 C 384.977417 247.802994 377.932068 266.809174 365.77179 284.102905 C 352.875946 302.442657 335.586395 314.976288 314.35321 321.632751 C 306.371735 324.134888 297.764069 325.306885 289.377136 325.698334 C 275.41272 326.350067 261.395355 325.974915 247.401749 325.856476 C 237.798416 325.775208 230.191315 320.09024 227.007324 311.005768 C 224.331436 303.370972 227.138458 292.462555 234.371323 287.819214 C 238.604309 285.101715 244.211807 283.60611 249.29895 283.323303 C 261.092316 282.667664 272.945221 283.061737 284.773987 283.069 C 299.819183 283.078217 313.511505 278.804413 324.583496 268.559814 C 335.230499 258.708496 341.99408 246.319794 344.079742 231.770615 C 346.823608 212.629959 343.40921 194.99173 330.709167 179.774338 C 330.299072 179.282928 330.147583 178.575638 329.920715 177.511444 C 329.965851 177.053894 330.231445 176.819016 330.475647 177.019501 C 332.145416 178.483765 333.571045 179.747559 334.998932 181.005066 C 335.001221 180.998779 334.988037 181.00235 335.0401 181.349014 C 337.996887 186.860657 340.901581 192.025635 343.847534 197.374771 C 343.888763 197.558914 344.000092 197.919525 343.987976 198.261383 C 344.32962 199.398468 344.683411 200.19368 345.01825 200.995621 C 344.999329 201.002335 345.025085 200.971786 345.048523 201.263611 C 345.29425 202.088364 345.51651 202.621277 345.771912 203.368835 C 345.805023 203.583466 345.947205 203.993896 346.050781 204.210846 C 346.321106 204.70372 346.523041 204.950897 346.7453 205.550964 C 347.10672 214.634277 347.483002 223.335953 347.739258 232.396835 C 344.379303 240.820801 341.139404 248.885559 337.63678 257.113708 C 336.889923 258.16217 336.405823 259.047211 335.655426 260.099915 C 334.915649 261.176941 334.4422 262.086304 333.746216 263.175903 C 333.310699 263.877411 333.097687 264.398651 332.639587 265.062073 C 331.908478 265.772247 331.422455 266.34024 330.640686 267.064362 C 328.178375 269.43219 326.01181 271.64386 323.857574 273.832947 C 323.869904 273.810394 323.819092 273.818634 323.478516 273.833069 C 321.94693 274.792786 320.75592 275.738098 319.26886 276.716614 C 318.301056 277.138855 317.629333 277.527863 316.653198 277.984558 C 315.753082 278.601074 315.15741 279.149902 314.291718 279.685974 C 313.669373 279.744934 313.317047 279.81665 312.606201 279.940369 C 310.027008 281.236328 307.806305 282.480286 305.230103 283.743378 C 303.935944 283.901215 302.997314 284.039917 301.768616 284.155273 C 300.970551 284.381226 300.462524 284.630463 299.544922 284.888397 C 297.776733 285.023193 296.418213 285.149323 294.594788 285.19165 C 289.067017 285.381348 284.00412 285.654877 278.48111 285.904785 C 273.699524 285.894531 269.377991 285.907867 264.741028 285.724731 C 262.264771 285.660461 260.103912 285.792633 257.486511 285.904846 C 253.363342 285.986115 249.696762 286.087341 245.643463 286.129639 C 242.832047 287.042328 240.407379 288.013977 237.991348 288.992798 C 238 289 237.985703 288.982086 237.687057 289.117493 C 236.464874 290.428253 235.541351 291.603577 234.363739 292.837799 C 233.716721 293.225952 233.323776 293.555267 232.635742 294.082031 C 231.274521 297.198944 230.208359 300.118439 229.097229 303.445343 C 229.099442 305.215271 229.146637 306.577759 229.193207 308.254456 C 229.708099 309.189117 230.223587 309.809601 230.762466 310.780151 C 234.029755 319.454865 240.52475 323.178009 249.040024 322.987701 C 266.806824 322.590607 284.629425 322.495636 302.304962 320.900787 C 316.534882 319.616882 329.537445 313.799713 341.34906 304.971863 C 342.861145 303.697388 344.041992 302.478333 345.428345 301.216125 C 345.633881 301.172974 346.033508 301.043671 346.364471 300.983398 C 348.454926 299.271851 350.214447 297.620575 351.987 295.98465 C 352 296 351.969208 295.974243 352.261841 295.84137 C 353.680054 294.445984 354.805664 293.183472 356.182922 291.751892 C 357.01001 290.773529 357.585449 289.964203 358.460938 289.031586 C 359.225708 287.98996 359.69046 287.071655 360.173706 286.153381 C 360.192261 286.153412 360.225616 286.137238 360.543488 286.044312 C 362.243683 283.721283 363.626007 281.49118 365.284241 279.03772 C 367.199768 275.301941 368.839355 271.78952 370.703369 268.150269 C 371.349884 267.729706 371.771973 267.435974 372.473755 267.032898 C 373.103577 266.2547 373.453705 265.585876 373.897217 264.587524 C 374.314392 263.166809 374.638214 262.075562 375.180786 260.795227 C 375.548035 260.06604 375.696564 259.52594 375.901978 258.673767 C 376.050323 257.948669 376.141785 257.535675 376.534241 256.987579 C 377.497986 255.188019 378.160706 253.52356 378.862061 251.646423 C 378.900726 251.433716 378.995483 251.011856 379.1875 250.868652 C 379.610321 250.485352 379.741638 250.199539 379.804962 249.558899 C 379.89566 248.839767 379.954834 248.429749 380.223816 247.799988 C 380.555267 246.997208 380.676819 246.4142 380.846527 245.44838 C 381.258514 243.047653 381.622375 241.029724 382.207367 238.718857 C 382.520416 237.210419 382.612274 235.994919 382.741547 234.401611 C 382.862 233.014786 382.945038 232.005798 383.250061 230.665405 C 383.528107 227.818893 383.584167 225.303802 383.649292 222.467484 C 383.65451 221.503876 383.650635 220.861481 383.749115 219.764557 C 383.561951 216.198898 383.27243 213.087769 382.954529 209.628906 C 382.863373 208.586166 382.800537 207.89119 382.816895 206.760345 C 381.933441 196.243149 380.153961 186.404404 374.324707 177.419785 C 373.837982 176.058563 373.434082 175.021439 372.986328 173.636688 C 371.734497 171.442291 370.526489 169.59549 369.253784 167.480316 C 369.08075 166.861221 368.972382 166.510513 368.844421 165.804428 C 366.908386 161.937866 364.991943 158.426682 363.07547 154.915512 z" stroke-linecap="round" />
</g>
<g transform="matrix(2.17 0 0 2.17 534.72 293.63)"  >
<path style="stroke: none; stroke-width: 1; stroke-dasharray: none; stroke-linecap: butt; stroke-dashoffset: 0; stroke-linejoin: miter; stroke-miterlimit: 4; fill: rgb(150,159,149); fill-rule: nonzero; opacity: 1;" vector-effect="non-scaling-stroke"  transform=" translate(-248, -136.69)" d="M 177.023834 157.285065 C 162.494553 160.794006 150.160751 154.675934 147.082214 142.432816 C 143.462097 128.035858 153.089462 115.273361 167.956024 115.176033 C 189.442322 115.035362 210.93045 115.180054 232.417786 115.18737 C 250.573776 115.193558 268.730286 115.089729 286.885651 115.194336 C 307.997772 115.315979 327.217896 121.33136 344.052307 134.280426 C 346.253448 135.973557 348.003174 138.25354 349.675537 140.567551 C 345.561432 138.253784 341.733795 135.634186 337.73645 132.953308 C 337.566772 132.892014 337.221558 132.780975 337.083527 132.475739 C 327.426727 124.849648 316.517059 121.008034 304.472107 119.277084 C 303.81427 119.222305 303.438293 119.191666 302.743744 118.913879 C 297.166412 118.114792 291.910034 117.113457 286.64856 117.085876 C 258.403442 116.937798 230.157074 117.034142 201.911133 117.041748 C 190.446671 117.04483 178.981155 116.940956 167.518097 117.0662 C 159.196381 117.157127 152.94426 121.545967 151.071503 128.432465 C 150.868958 129.047333 150.753677 129.398804 150.346375 129.953705 C 145.02652 142.434845 153.886337 156.376801 166.71492 155.71579 C 170.437012 155.773102 173.719925 155.798065 177.008911 156.188522 C 177.017929 156.797699 177.020889 157.041382 177.023834 157.285065 z" stroke-linecap="round" />
</g>
<g transform="matrix(2.17 0 0 2.17 536.65 346.16)"  >
<path style="stroke: none; stroke-width: 1; stroke-dasharray: none; stroke-linecap: butt; stroke-dashoffset: 0; stroke-linejoin: miter; stroke-miterlimit: 4; fill: rgb(92,139,173); fill-rule: nonzero; opacity: 1;" vector-effect="non-scaling-stroke"  transform=" translate(-248.89, -160.94)" d="M 177.397552 157.287231 C 177.020889 157.041382 177.017929 156.797699 177.362396 155.983398 C 179.189636 155.270859 180.669449 155.005371 182.149292 155.005157 C 217.245743 155.000137 252.343857 154.850464 287.437195 155.190918 C 294.29541 155.257446 301.387238 156.473953 307.899292 158.603485 C 312.673096 160.164566 316.674835 164.086624 320.665527 166.917725 C 319.266541 166.39386 318.150391 166.0215 317.189728 165.406326 C 305.390991 157.850708 292.494659 155.570068 278.745056 157.315079 C 271.543518 157.310806 264.34201 157.306549 256.210083 157.169006 C 245.107971 157.11734 234.936264 157.198975 224.764557 157.280609 C 219.888962 157.288895 215.013367 157.297195 209.209839 157.172974 C 199.108368 157.118179 189.93483 157.195908 180.761307 157.273621 C 179.764633 157.27887 178.76796 157.284134 177.397552 157.287231 z" stroke-linecap="round" />
</g>
<g transform="matrix(2.17 0 0 2.17 657.35 359.36)"  >
<path style="stroke: none; stroke-width: 1; stroke-dasharray: none; stroke-linecap: butt; stroke-dashoffset: 0; stroke-linejoin: miter; stroke-miterlimit: 4; fill: rgb(150,159,149); fill-rule: nonzero; opacity: 1;" vector-effect="non-scaling-stroke"  transform=" translate(-304.61, -167.04)" d="M 278.990417 157.602737 C 292.494659 155.570068 305.390991 157.850708 317.189728 165.406326 C 318.150391 166.0215 319.266541 166.39386 320.662598 166.930634 C 321.014771 166.982193 321.032654 166.981079 321.171265 167.286682 C 324.283722 170.667862 327.257599 173.743439 330.231445 176.819016 C 330.231445 176.819016 329.965851 177.053894 329.833191 177.174316 C 324.405304 173.313339 319.39447 168.858109 313.74472 165.467468 C 306.254547 160.972321 297.931122 158.677963 289.032806 158.749451 C 285.769653 158.775681 282.501617 158.194504 278.990417 157.602737 z" stroke-linecap="round" />
</g>
<g transform="matrix(2.17 0 0 2.17 762.63 321.07)"  >
<path style="stroke: none; stroke-width: 1; stroke-dasharray: none; stroke-linecap: butt; stroke-dashoffset: 0; stroke-linejoin: miter; stroke-miterlimit: 4; fill: rgb(92,139,173); fill-rule: nonzero; opacity: 1;" vector-effect="non-scaling-stroke"  transform=" translate(-353.21, -149.36)" d="M 337.906128 133.014587 C 341.733795 135.634186 345.561432 138.253784 349.73645 140.903488 C 350.083801 140.933578 350.44632 141.157013 350.710022 141.586319 C 352.86554 143.738693 354.757416 145.461746 356.649261 147.184814 C 357.346313 147.922394 358.043365 148.659988 358.922668 149.99118 C 360.287445 151.782593 361.46994 152.980408 362.652435 154.178223 C 362.652435 154.178223 362.879517 154.538071 362.977478 154.726791 C 364.991943 158.426682 366.908386 161.937866 368.518463 165.702408 C 367.325745 165.237411 366.129395 164.696823 365.600098 163.773758 C 358.792999 151.902267 348.481354 143.393219 338.087585 134.596985 C 337.998352 133.859436 337.95224 133.437012 337.906128 133.014587 z" stroke-linecap="round" />
</g>
<g transform="matrix(2.17 0 0 2.17 518.25 339.12)"  >
<path style="stroke: none; stroke-width: 1; stroke-dasharray: none; stroke-linecap: butt; stroke-dashoffset: 0; stroke-linejoin: miter; stroke-miterlimit: 4; fill: rgb(150,159,149); fill-rule: nonzero; opacity: 1;" vector-effect="non-scaling-stroke"  transform=" translate(-240.39, -157.69)" d="M 225.003357 157.573959 C 234.936264 157.198975 245.107971 157.11734 255.756561 157.156204 C 255.875977 157.611099 255.515991 158.240005 255.161362 158.237015 C 245.187958 158.152832 235.215103 158.004837 225.003357 157.573959 z" stroke-linecap="round" />
</g>
<g transform="matrix(2.17 0 0 2.17 419.69 339.12)"  >
<path style="stroke: none; stroke-width: 1; stroke-dasharray: none; stroke-linecap: butt; stroke-dashoffset: 0; stroke-linejoin: miter; stroke-miterlimit: 4; fill: rgb(150,159,149); fill-rule: nonzero; opacity: 1;" vector-effect="non-scaling-stroke"  transform=" translate(-194.89, -157.69)" d="M 180.999939 157.567902 C 189.93483 157.195908 199.108368 157.118179 208.758942 157.160431 C 208.877609 157.613297 208.516479 158.239532 208.16127 158.236191 C 199.186676 158.151733 190.212662 158.00116 180.999939 157.567902 z" stroke-linecap="round" />
</g>
<g transform="matrix(2.17 0 0 2.17 763.85 310.06)"  >
<path style="stroke: none; stroke-width: 1; stroke-dasharray: none; stroke-linecap: butt; stroke-dashoffset: 0; stroke-linejoin: miter; stroke-miterlimit: 4; fill: rgb(150,159,149); fill-rule: nonzero; opacity: 1;" vector-effect="non-scaling-stroke"  transform=" translate(-353.78, -144.28)" d="M 356.670105 146.840576 C 354.757416 145.461746 352.86554 143.738693 350.881805 141.712097 C 352.756927 143.104492 354.723969 144.800415 356.670105 146.840576 z" stroke-linecap="round" />
</g>
<g transform="matrix(2.17 0 0 2.17 779.25 326.88)"  >
<path style="stroke: none; stroke-width: 1; stroke-dasharray: none; stroke-linecap: butt; stroke-dashoffset: 0; stroke-linejoin: miter; stroke-miterlimit: 4; fill: rgb(150,159,149); fill-rule: nonzero; opacity: 1;" vector-effect="non-scaling-stroke"  transform=" translate(-360.89, -152.04)" d="M 362.680237 153.839478 C 361.46994 152.980408 360.287445 151.782593 359.09082 150.244965 C 360.28714 151.103653 361.497589 152.30217 362.680237 153.839478 z" stroke-linecap="round" />
</g>
<g transform="matrix(2.17 0 0 2.17 495.78 478.23)"  >
<path style="stroke: none; stroke-width: 1; stroke-dasharray: none; stroke-linecap: butt; stroke-dashoffset: 0; stroke-linejoin: miter; stroke-miterlimit: 4; fill: rgb(58,154,224); fill-rule: nonzero; opacity: 1;" vector-effect="non-scaling-stroke"  transform=" translate(-230.02, -221.92)" d="M 162.949799 222.964584 C 163.135757 222.694382 163.321716 222.424179 164.062775 221.998734 C 165.393768 220.899261 166.169647 219.955017 166.945526 219.010773 C 176.779922 207.935501 189.713181 202.51355 203.91243 201.913193 C 228.854477 200.858627 253.856644 201.123535 278.834076 201.077469 C 285.611694 201.064972 292.357422 201.37117 297.955414 206.620468 C 302.963013 211.316132 304.956757 220.846527 302.302246 227.11554 C 300.087769 232.345352 297.031311 236.100143 291.053711 237.757874 C 287.729858 237.475861 285.034729 237.391754 282.34082 237.277725 C 281.079834 237.22435 279.657776 237.466217 278.588104 236.970886 C 271.725281 233.792969 264.66568 235.349213 257.573242 235.557434 C 246.26619 235.889389 234.938614 235.537872 223.619919 235.451828 C 218.491028 235.412827 213.236359 234.581161 208.265854 235.433517 C 202.032272 236.502472 196.044128 239.393982 189.860184 235.289581 C 188.673157 243.764328 188.299225 244.050552 183.737885 240.939651 C 174.846252 245.216629 170.427719 236.757278 163.549698 234.225204 C 162.765427 235.58609 161.946457 237.007187 160.953156 238.730804 C 159.059036 236.960419 158.006363 235.976501 156.927673 234.590988 C 156.787338 233.664093 156.673035 233.138809 156.558731 232.61351 C 156.705719 232.246857 156.852707 231.880203 157.445679 231.327667 C 158.905457 230.707916 159.919235 230.274063 160.943695 229.445862 C 160.91658 227.989716 160.878784 226.927902 160.840988 225.866104 C 160.840988 225.866104 160.96048 225.852783 161.303589 225.80986 C 162.08107 224.832825 162.515442 223.898712 162.949799 222.964584 z" stroke-linecap="round" />
</g>
<g transform="matrix(2.17 0 0 2.17 356.8 738.88)"  >
<path style="stroke: none; stroke-width: 1; stroke-dasharray: none; stroke-linecap: butt; stroke-dashoffset: 0; stroke-linejoin: miter; stroke-miterlimit: 4; fill: rgb(79,171,231); fill-rule: nonzero; opacity: 1;" vector-effect="non-scaling-stroke"  transform=" translate(-165.85, -342.25)" d="M 149.040817 346.005219 C 148.833252 340.370361 148.625702 334.735504 148.746536 328.412598 C 149.40062 322.148895 149.726318 316.573212 150.451172 310.996948 C 152.132706 310.7771 154.042465 311.017395 154.594818 310.263336 C 157.982101 305.63916 161.814331 307.139374 166.043625 308.685486 C 169.163834 309.826111 172.871979 312.172699 175.24881 307.137573 C 175.467194 306.674957 177.251663 306.763672 178.264832 306.907318 C 179.860062 307.133514 181.417831 307.623901 182.995026 308.470825 C 182.334366 320.984222 181.642822 333.027863 181.024017 345.075195 C 180.857162 348.323792 181.587219 351.60907 177.882477 353.856689 C 176.757965 354.53891 176.925873 357.35144 176.249863 360.279755 C 178.941238 359.001892 180.155533 358.425354 182.998367 357.075592 C 181.473389 363.808197 180.265701 369.139954 178.98912 374.775909 C 176.518341 373.896088 174.688522 373.689941 173.540985 372.696075 C 172.609451 371.889313 171.699524 369.410034 172.147308 368.918732 C 175.752274 364.96347 172.826004 363.609039 169.85289 361.874634 C 167.728073 360.635101 165.943039 358.82251 163.853012 357.509827 C 162.842911 356.875366 161.387482 356.392822 160.312302 356.634888 C 159.698914 356.77301 159.187286 358.479828 159.073837 359.52832 C 158.587799 364.020844 159.778931 367.780151 163.298233 369.206421 C 164.002029 372.569946 164.514954 375.021271 165.076141 377.703247 C 158.977097 376.960358 159.68811 371.094543 157.728119 367.340118 C 155.996948 368.820862 154.759872 369.878998 153.522797 370.937134 C 153.008301 370.782959 152.493805 370.628784 151.979309 370.47464 C 151.782379 365.119324 151.809433 359.742523 151.298126 354.417389 C 151.024475 351.567352 149.82338 348.806396 149.040817 346.005219 z" stroke-linecap="round" />
</g>
<g transform="matrix(2.17 0 0 2.17 473.72 546.38)"  >
<path style="stroke: none; stroke-width: 1; stroke-dasharray: none; stroke-linecap: butt; stroke-dashoffset: 0; stroke-linejoin: miter; stroke-miterlimit: 4; fill: rgb(66,159,225); fill-rule: nonzero; opacity: 1;" vector-effect="non-scaling-stroke"  transform=" translate(-219.83, -253.38)" d="M 156.95369 234.992584 C 158.006363 235.976501 159.059036 236.960419 160.953156 238.730804 C 161.946457 237.007187 162.765427 235.58609 163.549698 234.225204 C 170.427719 236.757278 174.846252 245.216629 183.737885 240.939651 C 188.299225 244.050552 188.673157 243.764328 189.860184 235.289581 C 196.044128 239.393982 202.032272 236.502472 208.265854 235.433517 C 213.236359 234.581161 218.491028 235.412827 223.619919 235.451828 C 234.938614 235.537872 246.26619 235.889389 257.573242 235.557434 C 264.66568 235.349213 271.725281 233.792969 278.588104 236.970886 C 279.657776 237.466217 281.079834 237.22435 282.34082 237.277725 C 285.034729 237.391754 287.729858 237.475861 290.700531 237.800385 C 288.693359 238.706223 286.413757 239.95813 284.126373 239.972626 C 261.499084 240.116058 238.870148 239.981628 216.242599 240.09996 C 210.282272 240.131119 204.256897 240.322845 198.383377 241.230316 C 190.688431 242.419205 187.570496 248.770828 186.035782 255.268814 C 184.760132 260.669983 185.232437 266.483948 184.499405 272.529968 C 181.869904 271.798035 179.778137 270.091003 177.445877 269.64682 C 174.559555 269.097107 171.47348 269.636993 168.474121 269.622528 C 167.01268 269.615448 164.945602 268.742249 164.191071 269.418945 C 159.768219 273.38559 154.93222 271.794922 150.072937 270.55722 C 149.683182 266.382843 149.326172 262.665649 148.969177 258.948486 C 149.051315 256.977295 149.133484 255.006104 149.567322 252.444031 C 150.666046 250.209824 151.464081 248.587463 152.149963 246.919006 C 153.779465 242.955154 155.35585 238.969452 156.95369 234.992584 z" stroke-linecap="round" />
</g>
<g transform="matrix(2.17 0 0 2.17 360.23 625.63)"  >
<path style="stroke: none; stroke-width: 1; stroke-dasharray: none; stroke-linecap: butt; stroke-dashoffset: 0; stroke-linejoin: miter; stroke-miterlimit: 4; fill: rgb(73,166,229); fill-rule: nonzero; opacity: 1;" vector-effect="non-scaling-stroke"  transform=" translate(-167.44, -289.97)" d="M 150.105698 271.014435 C 154.93222 271.794922 159.768219 273.38559 164.191071 269.418945 C 164.945602 268.742249 167.01268 269.615448 168.474121 269.622528 C 171.47348 269.636993 174.559555 269.097107 177.445877 269.64682 C 179.778137 270.091003 181.869904 271.798035 184.398666 272.990509 C 184.82547 275.083344 184.921967 277.130493 184.602859 279.766113 C 183.79541 282.033752 183.093964 283.707611 183.065033 285.393036 C 182.935745 292.927704 182.99823 300.465668 182.991455 308.002441 C 181.417831 307.623901 179.860062 307.133514 178.264832 306.907318 C 177.251663 306.763672 175.467194 306.674957 175.24881 307.137573 C 172.871979 312.172699 169.163834 309.826111 166.043625 308.685486 C 161.814331 307.139374 157.982101 305.63916 154.594818 310.263336 C 154.042465 311.017395 152.132706 310.7771 150.426437 310.529053 C 150.036926 297.045959 150.071304 284.030212 150.105698 271.014435 z" stroke-linecap="round" />
</g>
<g transform="matrix(2.17 0 0 2.17 359.3 716.89)"  >
<path style="stroke: none; stroke-width: 1; stroke-dasharray: none; stroke-linecap: butt; stroke-dashoffset: 0; stroke-linejoin: miter; stroke-miterlimit: 4; fill: rgb(92,171,220); fill-rule: nonzero; opacity: 1;" vector-effect="non-scaling-stroke"  transform=" translate(-167.01, -332.1)" d="M 182.995026 308.470825 C 182.99823 300.465668 182.935745 292.927704 183.065033 285.393036 C 183.093964 283.707611 183.79541 282.033752 184.533356 280.202576 C 184.972717 294.843536 185.121445 309.636383 185.142899 324.429443 C 185.16243 337.899567 185.174469 351.372162 184.944061 364.839447 C 184.764908 375.311493 176.638809 383.809479 167.060532 383.988403 C 157.50679 384.16687 149.407516 376.409424 149.006775 366.381653 C 148.748001 359.906189 148.904587 353.414124 148.957916 346.467346 C 149.82338 348.806396 151.024475 351.567352 151.298126 354.417389 C 151.809433 359.742523 151.782379 365.119324 151.979309 370.47464 C 152.493805 370.628784 153.008301 370.782959 153.522797 370.937134 C 154.759872 369.878998 155.996948 368.820862 157.728119 367.340118 C 159.68811 371.094543 158.977097 376.960358 165.076141 377.703247 C 164.514954 375.021271 164.002029 372.569946 163.298233 369.206421 C 159.778931 367.780151 158.587799 364.020844 159.073837 359.52832 C 159.187286 358.479828 159.698914 356.77301 160.312302 356.634888 C 161.387482 356.392822 162.842911 356.875366 163.853012 357.509827 C 165.943039 358.82251 167.728073 360.635101 169.85289 361.874634 C 172.826004 363.609039 175.752274 364.96347 172.147308 368.918732 C 171.699524 369.410034 172.609451 371.889313 173.540985 372.696075 C 174.688522 373.689941 176.518341 373.896088 178.98912 374.775909 C 180.265701 369.139954 181.473389 363.808197 182.998367 357.075592 C 180.155533 358.425354 178.941238 359.001892 176.249863 360.279755 C 176.925873 357.35144 176.757965 354.53891 177.882477 353.856689 C 181.587219 351.60907 180.857162 348.323792 181.024017 345.075195 C 181.642822 333.027863 182.334366 320.984222 182.995026 308.470825 z" stroke-linecap="round" />
</g>
<g transform="matrix(2.17 0 0 2.17 320.39 633.57)"  >
<path style="stroke: none; stroke-width: 1; stroke-dasharray: none; stroke-linecap: butt; stroke-dashoffset: 0; stroke-linejoin: miter; stroke-miterlimit: 4; fill: rgb(101,150,179); fill-rule: nonzero; opacity: 1;" vector-effect="non-scaling-stroke"  transform=" translate(-149.04, -293.63)" d="M 150.072937 270.55722 C 150.071304 284.030212 150.036926 297.045959 150.027283 310.529663 C 149.726318 316.573212 149.40062 322.148895 148.793274 327.96286 C 148.348068 323.740875 148.057312 319.280975 148.043732 314.820221 C 147.993759 298.401489 148.019806 281.982452 148.063797 265.56366 C 148.069092 263.592133 148.359238 261.621399 148.743271 259.299377 C 149.326172 262.665649 149.683182 266.382843 150.072937 270.55722 z" stroke-linecap="round" />
</g>
<g transform="matrix(2.17 0 0 2.17 329.56 522.61)"  >
<path style="stroke: none; stroke-width: 1; stroke-dasharray: none; stroke-linecap: butt; stroke-dashoffset: 0; stroke-linejoin: miter; stroke-miterlimit: 4; fill: rgb(101,150,179); fill-rule: nonzero; opacity: 1;" vector-effect="non-scaling-stroke"  transform=" translate(-153.28, -242.41)" d="M 156.927673 234.590988 C 155.35585 238.969452 153.779465 242.955154 152.149963 246.919006 C 151.464081 248.587463 150.666046 250.209824 149.627594 252.02652 C 151.550064 245.784698 153.763916 239.369507 156.26825 232.783905 C 156.673035 233.138809 156.787338 233.664093 156.927673 234.590988 z" stroke-linecap="round" />
</g>
<g transform="matrix(2.17 0 0 2.17 342.53 496.06)"  >
<path style="stroke: none; stroke-width: 1; stroke-dasharray: none; stroke-linecap: butt; stroke-dashoffset: 0; stroke-linejoin: miter; stroke-miterlimit: 4; fill: rgb(66,159,225); fill-rule: nonzero; opacity: 1;" vector-effect="non-scaling-stroke"  transform=" translate(-159.27, -230.15)" d="M 160.933014 229.84021 C 159.919235 230.274063 158.905457 230.707916 157.604889 231.077042 C 157.686813 230.423218 158.055542 229.834122 158.899475 229.219696 C 159.894119 229.409637 160.413574 229.624908 160.933014 229.84021 z" stroke-linecap="round" />
</g>
<g transform="matrix(2.17 0 0 2.17 344.19 490.82)"  >
<path style="stroke: none; stroke-width: 1; stroke-dasharray: none; stroke-linecap: butt; stroke-dashoffset: 0; stroke-linejoin: miter; stroke-miterlimit: 4; fill: rgb(101,150,179); fill-rule: nonzero; opacity: 1;" vector-effect="non-scaling-stroke"  transform=" translate(-160.03, -227.73)" d="M 160.943695 229.445862 C 160.413574 229.624908 159.894119 229.409637 159.122345 229.062927 C 159.306427 227.964844 159.742859 226.998215 160.510132 225.948853 C 160.878784 226.927902 160.91658 227.989716 160.943695 229.445862 z" stroke-linecap="round" />
</g>
<g transform="matrix(2.17 0 0 2.17 355.93 475.11)"  >
<path style="stroke: none; stroke-width: 1; stroke-dasharray: none; stroke-linecap: butt; stroke-dashoffset: 0; stroke-linejoin: miter; stroke-miterlimit: 4; fill: rgb(66,159,225); fill-rule: nonzero; opacity: 1;" vector-effect="non-scaling-stroke"  transform=" translate(-165.45, -220.47)" d="M 166.616699 219.05307 C 166.169647 219.955017 165.393768 220.899261 164.289978 221.894379 C 164.73735 220.995316 165.512604 220.045334 166.616699 219.05307 z" stroke-linecap="round" />
</g>
<g transform="matrix(2.17 0 0 2.17 348.45 483.8)"  >
<path style="stroke: none; stroke-width: 1; stroke-dasharray: none; stroke-linecap: butt; stroke-dashoffset: 0; stroke-linejoin: miter; stroke-miterlimit: 4; fill: rgb(66,159,225); fill-rule: nonzero; opacity: 1;" vector-effect="non-scaling-stroke"  transform=" translate(-162, -224.49)" d="M 162.666595 223.109894 C 162.515442 223.898712 162.08107 224.832825 161.332611 225.862518 C 161.473465 225.057129 161.928436 224.156158 162.666595 223.109894 z" stroke-linecap="round" />
</g>
<g transform="matrix(2.17 0 0 2.17 628.04 657.02)"  >
<path style="stroke: none; stroke-width: 1; stroke-dasharray: none; stroke-linecap: butt; stroke-dashoffset: 0; stroke-linejoin: miter; stroke-miterlimit: 4; fill: rgb(76,168,230); fill-rule: nonzero; opacity: 1;" vector-effect="non-scaling-stroke"  transform=" translate(-291.08, -304.45)" d="M 341.017822 305.027313 C 329.537445 313.799713 316.534882 319.616882 302.304962 320.900787 C 284.629425 322.495636 266.806824 322.590607 249.040024 322.987701 C 240.52475 323.178009 234.029755 319.454865 230.770752 310.44751 C 230.235031 309.156586 229.714432 308.548431 229.193832 307.940247 C 229.146637 306.577759 229.099442 305.215271 229.415878 303.322357 C 230.829956 299.822815 231.880402 296.853668 232.930832 293.884552 C 233.323776 293.555267 233.716721 293.225952 234.745087 292.838318 C 236.248917 291.514038 237.11731 290.248047 237.985703 288.982086 C 237.985703 288.982086 238 289 238.403778 289.001526 C 241.215103 288.064911 243.62265 287.12674 246.030197 286.188568 C 249.696762 286.087341 253.363342 285.986115 257.787842 286.141022 C 260.716034 286.238525 262.886261 286.079895 265.056488 285.921234 C 269.377991 285.907867 273.699524 285.894531 278.804016 286.14798 C 282.058838 286.624237 284.53064 286.833649 286.89978 287.362976 C 285.896454 288.970184 284.99585 290.257477 284.103943 291.532318 C 288.970337 295.170563 298.593323 296.411804 301.556061 293.907776 C 301.363953 292.797394 301.161407 291.626587 301.039246 290.920471 C 304.64621 289.656097 307.79892 288.550934 310.871948 287.473724 C 311.049316 289.203674 310.644928 291.330566 311.5224 292.315491 C 312.677155 293.611633 314.839813 294.009827 317.108734 295.038849 C 314.728271 296.983124 312.947784 298.437378 310.208923 300.674347 C 316.28595 302.529297 321.118073 304.091797 326.003418 305.465149 C 329.339935 306.403107 331.187317 305.576172 330.458313 301.507507 C 330.206238 300.100555 330.607605 297.62912 331.48349 297.191772 C 332.765015 296.551788 334.740753 297.396179 336.424744 297.43689 C 337.684174 297.467316 339.369537 297.705353 340.141846 297.02713 C 343.857239 293.764374 348.523346 293.194305 352.985565 291.985168 C 352.996857 291.998047 353.017578 292.024078 352.878204 292.338959 C 352.4823 293.760651 352.225739 294.867432 351.969208 295.974243 C 351.969208 295.974243 352 296 351.62793 295.995819 C 349.515076 297.675629 347.774292 299.35965 346.033508 301.043671 C 346.033508 301.043671 345.633881 301.172974 345.073303 301.202393 C 343.347748 302.497009 342.18277 303.762146 341.017822 305.027313 z" stroke-linecap="round" />
</g>
<g transform="matrix(2.17 0 0 2.17 584.51 348.66)"  >
<path style="stroke: none; stroke-width: 1; stroke-dasharray: none; stroke-linecap: butt; stroke-dashoffset: 0; stroke-linejoin: miter; stroke-miterlimit: 4; fill: rgb(50,143,220); fill-rule: nonzero; opacity: 1;" vector-effect="non-scaling-stroke"  transform=" translate(-270.98, -162.1)" d="M 338.130737 134.912094 C 348.481354 143.393219 358.792999 151.902267 365.600098 163.773758 C 366.129395 164.696823 367.325745 165.237411 368.538025 166.0578 C 368.972382 166.510513 369.08075 166.861221 369.22525 167.857483 C 370.517639 170.330139 371.773895 172.157211 373.030151 173.984299 C 373.434082 175.021439 373.837982 176.058563 374.237427 177.816956 C 374.896027 181.339478 375.559052 184.140732 375.932404 187.052536 C 372.547302 187.8004 369.475708 188.768082 366.350555 188.993576 C 362.196136 189.29335 357.921143 189.506042 353.842987 188.851776 C 349.407349 188.140137 345.13797 186.392227 340.484467 185.003448 C 338.44458 183.607971 336.716309 182.305161 334.988037 181.00235 C 334.988037 181.00235 335.001221 180.998779 334.996216 180.641647 C 331.734314 174.385345 328.722046 168.229492 321.032654 166.981079 C 321.032654 166.981079 321.014771 166.982193 321.0177 166.969299 C 316.674835 164.086624 312.673096 160.164566 307.899292 158.603485 C 301.387238 156.473953 294.29541 155.257446 287.437195 155.190918 C 252.343857 154.850464 217.245743 155.000137 182.149292 155.005157 C 180.669449 155.005371 179.189636 155.270859 177.356323 155.617905 C 173.719925 155.798065 170.437012 155.773102 166.655701 155.456635 C 166.092346 154.814316 166.02739 154.463516 166.030792 153.75502 C 166.481613 152.478821 166.765884 151.503067 167.262497 150.651108 C 170.367081 145.325073 171.065872 145.243469 176.337463 148.656021 C 177.516815 149.419479 179.087204 149.883698 180.498093 149.936478 C 191.951904 150.364883 203.408737 150.797394 214.868423 150.955399 C 223.347855 151.072311 231.832687 150.755203 240.315552 150.679092 C 245.765442 150.630203 251.21727 150.735489 256.666046 150.643845 C 260.588898 150.577866 264.518402 150.417328 268.42511 150.073395 C 270.670471 149.875748 272.909363 148.736099 275.09317 148.882996 C 280.127136 149.221619 285.122833 150.10997 290.140991 150.718063 C 291.107666 150.835205 292.106171 150.665863 293.089722 150.671494 C 300.561066 150.714279 308.03421 150.866714 315.501923 150.726517 C 316.846527 150.701294 318.116119 149.313492 319.520813 148.881653 C 320.38623 148.615601 321.442108 148.969208 322.717529 149.068329 C 321.334412 151.420837 320.30722 153.167953 319.280029 154.915054 C 319.743622 155.422729 320.207184 155.93042 320.670776 156.438095 C 322.097443 155.253815 323.639832 154.182297 324.926605 152.86171 C 327.576996 150.141617 330.019958 147.215912 332.73468 144.56575 C 333.158386 144.152115 334.858856 144.404907 335.464233 144.930679 C 337.986603 147.121353 340.31604 149.534149 343.031097 152.171265 C 341.05957 153.202347 339.43457 153.607498 338.551208 154.64444 C 337.735168 155.602417 337.714142 157.237625 337.342957 158.57457 C 338.64267 158.818176 340.167999 159.628632 341.206238 159.215393 C 349.259552 156.01001 350.371277 147.870529 343.582275 142.734528 C 342.123901 141.631271 340.328583 140.786118 339.286163 139.379211 C 338.437408 138.233673 338.482178 136.426102 338.130737 134.912094 M 353.012543 151.651031 C 353.186768 152.544388 353.361023 153.437729 353.535278 154.331085 C 353.948944 154.158249 354.36264 153.985413 354.776306 153.812576 C 354.363495 153.086685 353.950684 152.360794 353.012543 151.651031 z" stroke-linecap="round" />
</g>
<g transform="matrix(2.17 0 0 2.17 769.67 542.11)"  >
<path style="stroke: none; stroke-width: 1; stroke-dasharray: none; stroke-linecap: butt; stroke-dashoffset: 0; stroke-linejoin: miter; stroke-miterlimit: 4; fill: rgb(62,160,229); fill-rule: nonzero; opacity: 1;" vector-effect="non-scaling-stroke"  transform=" translate(-356.46, -251.41)" d="M 380.013977 248.019745 C 379.954834 248.429749 379.89566 248.839767 379.632385 249.717194 C 379.217438 250.425537 379.073181 250.701279 378.995483 251.011856 C 378.995483 251.011856 378.900726 251.433716 378.554504 251.788452 C 377.549957 253.803024 376.891602 255.462845 376.233215 257.122681 C 376.141785 257.535675 376.050323 257.948669 375.664185 258.730225 C 375.233704 259.727325 375.09787 260.355835 374.962036 260.984344 C 374.638214 262.075562 374.314392 263.166809 373.621643 264.696289 C 372.899811 265.803772 372.546936 266.473022 372.194061 267.142242 C 371.771973 267.435974 371.349884 267.729706 370.339417 267.964539 C 362.485199 264.207977 360.835632 264.129669 358.485626 268.669678 C 356.72702 272.067047 355.064606 272.09906 351.828583 270.746643 C 342.994751 267.054779 342.92218 267.238312 336.864319 274.410004 C 336.286835 275.093719 335.640594 275.719391 335.364594 276.012573 C 333.701843 274.483734 332.348541 273.239441 330.994202 271.572693 C 330.974274 269.736237 330.955353 268.322235 330.936432 266.908203 C 331.422455 266.34024 331.908478 265.772247 332.908752 265.039734 C 333.604919 264.248657 333.786835 263.622131 333.968719 262.995636 C 334.4422 262.086304 334.915649 261.176941 335.98584 260.027435 C 337.021515 258.841614 337.46051 257.895966 337.899506 256.950317 C 341.139404 248.885559 344.379303 240.820801 348.116028 232.379883 C 349.762573 230.809235 350.912323 229.614761 352.062073 228.420273 C 351.801086 227.880356 351.54007 227.340439 351.279083 226.800522 C 358.258972 227.46254 365.228424 228.447968 372.222382 228.673584 C 376.93399 228.825577 380.028412 230.252701 381.088623 235.380341 C 381.386505 236.826355 381.686371 237.919067 381.986206 239.011795 C 381.622375 241.029724 381.258514 243.047653 380.614746 245.544769 C 380.227905 246.689209 380.120972 247.354477 380.013977 248.019745 z" stroke-linecap="round" />
</g>
<g transform="matrix(2.17 0 0 2.17 782.14 452.55)"  >
<path style="stroke: none; stroke-width: 1; stroke-dasharray: none; stroke-linecap: butt; stroke-dashoffset: 0; stroke-linejoin: miter; stroke-miterlimit: 4; fill: rgb(55,152,225); fill-rule: nonzero; opacity: 1;" vector-effect="non-scaling-stroke"  transform=" translate(-362.22, -210.06)" d="M 381.090607 235.027054 C 380.028412 230.252701 376.93399 228.825577 372.222382 228.673584 C 365.228424 228.447968 358.258972 227.46254 351.279083 226.800522 C 351.54007 227.340439 351.801086 227.880356 352.062073 228.420273 C 350.912323 229.614761 349.762573 230.809235 348.236053 232.02066 C 347.483002 223.335953 347.10672 214.634277 346.701355 205.301468 C 346.430573 204.444839 346.188904 204.219376 345.947205 203.993896 C 345.947205 203.993896 345.805023 203.583466 345.815247 203.060883 C 345.558655 202.016129 345.29187 201.493958 345.025085 200.971786 C 345.025085 200.971786 344.999329 201.002335 345.007568 200.659668 C 344.677246 199.517853 344.338654 198.718689 344.000092 197.919525 C 344.000092 197.919525 343.888763 197.558914 343.898102 196.979706 C 343.902649 195.611771 343.897858 194.823029 344.223083 193.962524 C 345.148529 193.079193 345.743988 192.267624 346.339478 191.456055 C 345.195831 190.982346 344.052155 190.508636 342.698029 189.772003 C 341.923737 188.038086 341.359924 186.567108 340.796082 185.09613 C 345.13797 186.392227 349.407349 188.140137 353.842987 188.851776 C 357.921143 189.506042 362.196136 189.29335 366.350555 188.993576 C 369.475708 188.768082 372.547302 187.8004 376.151825 187.323074 C 377.477051 189.92482 378.347198 192.350159 379.097198 194.812073 C 380.351074 198.927811 381.528229 203.066925 382.737701 207.196198 C 382.800537 207.89119 382.863373 208.586166 382.732117 209.960205 C 382.907593 213.83252 383.277161 217.025803 383.646729 220.219086 C 383.650635 220.861481 383.65451 221.503876 383.370789 222.684143 C 383.064819 225.813599 383.046478 228.405197 383.028107 230.996796 C 382.945038 232.005798 382.862 233.014786 382.475098 234.450378 C 381.811005 234.926987 381.450806 234.97702 381.090607 235.027054 z" stroke-linecap="round" />
</g>
<g transform="matrix(2.17 0 0 2.17 706.09 616)"  >
<path style="stroke: none; stroke-width: 1; stroke-dasharray: none; stroke-linecap: butt; stroke-dashoffset: 0; stroke-linejoin: miter; stroke-miterlimit: 4; fill: rgb(70,166,231); fill-rule: nonzero; opacity: 1;" vector-effect="non-scaling-stroke"  transform=" translate(-327.11, -285.52)" d="M 330.995209 271.995117 C 332.348541 273.239441 333.701843 274.483734 335.364594 276.012573 C 335.640594 275.719391 336.286835 275.093719 336.864319 274.410004 C 342.92218 267.238312 342.994751 267.054779 351.828583 270.746643 C 355.064606 272.09906 356.72702 272.067047 358.485626 268.669678 C 360.835632 264.129669 362.485199 264.207977 370.11499 268.0914 C 368.839355 271.78952 367.199768 275.301941 365.301758 278.904602 C 365.043304 278.994843 365.039612 278.728912 365.026428 278.377747 C 364.762695 276.852875 364.512177 275.679169 364.256592 274.481903 C 358.442596 275.600922 356.635864 279.028778 356.656952 284.025085 C 355.210236 286.690765 354.092255 289.331543 352.974274 291.972321 C 348.523346 293.194305 343.857239 293.764374 340.141846 297.02713 C 339.369537 297.705353 337.684174 297.467316 336.424744 297.43689 C 334.740753 297.396179 332.765015 296.551788 331.48349 297.191772 C 330.607605 297.62912 330.206238 300.100555 330.458313 301.507507 C 331.187317 305.576172 329.339935 306.403107 326.003418 305.465149 C 321.118073 304.091797 316.28595 302.529297 310.208923 300.674347 C 312.947784 298.437378 314.728271 296.983124 317.108734 295.038849 C 314.839813 294.009827 312.677155 293.611633 311.5224 292.315491 C 310.644928 291.330566 311.049316 289.203674 310.871948 287.473724 C 307.79892 288.550934 304.64621 289.656097 301.039246 290.920471 C 301.161407 291.626587 301.363953 292.797394 301.556061 293.907776 C 298.593323 296.411804 288.970337 295.170563 284.103943 291.532318 C 284.99585 290.257477 285.896454 288.970184 287.325104 287.353149 C 290.25531 286.440735 292.657471 285.858063 295.059662 285.275452 C 296.418213 285.149323 297.776733 285.023193 299.725342 285.067261 C 300.896484 284.88446 301.47757 284.531525 302.058655 284.178589 C 302.997314 284.039917 303.935944 283.901215 305.63031 283.763367 C 308.578918 282.472229 310.77182 281.180298 312.964722 279.888367 C 313.317047 279.81665 313.669373 279.744934 314.639099 279.697693 C 315.823517 279.120361 316.390564 278.518616 316.957611 277.91687 C 317.629333 277.527863 318.301056 277.138855 319.683777 276.79303 C 321.536224 275.830353 322.677643 274.824493 323.819092 273.818634 C 323.819092 273.818634 323.869904 273.810394 324.244354 273.814636 C 326.744263 273.210938 328.869751 272.603027 330.995209 271.995117 M 352.664398 281.722717 C 352.54541 280.692657 352.426392 279.662598 352.307404 278.632538 C 350.871429 279.463226 350.373199 280.332703 350.475952 281.124176 C 350.530701 281.545654 351.625061 281.832184 352.664398 281.722717 z" stroke-linecap="round" />
</g>
<g transform="matrix(2.17 0 0 2.17 817.55 414.41)"  >
<path style="stroke: none; stroke-width: 1; stroke-dasharray: none; stroke-linecap: butt; stroke-dashoffset: 0; stroke-linejoin: miter; stroke-miterlimit: 4; fill: rgb(92,139,173); fill-rule: nonzero; opacity: 1;" vector-effect="non-scaling-stroke"  transform=" translate(-378.57, -192.45)" d="M 382.816895 206.760345 C 381.528229 203.066925 380.351074 198.927811 379.097198 194.812073 C 378.347198 192.350159 377.477051 189.92482 376.441498 187.212509 C 375.559052 184.140732 374.896027 181.339478 374.320251 178.141052 C 380.153961 186.404404 381.933441 196.243149 382.816895 206.760345 z" stroke-linecap="round" />
</g>
<g transform="matrix(2.17 0 0 2.17 708.2 374.37)"  >
<path style="stroke: none; stroke-width: 1; stroke-dasharray: none; stroke-linecap: butt; stroke-dashoffset: 0; stroke-linejoin: miter; stroke-miterlimit: 4; fill: rgb(92,139,173); fill-rule: nonzero; opacity: 1;" vector-effect="non-scaling-stroke"  transform=" translate(-328.08, -173.97)" d="M 321.171265 167.286682 C 328.722046 168.229492 331.734314 174.385345 334.993958 180.647934 C 333.571045 179.747559 332.145416 178.483765 330.475647 177.019501 C 327.257599 173.743439 324.283722 170.667862 321.171265 167.286682 z" stroke-linecap="round" />
</g>
<g transform="matrix(2.17 0 0 2.17 732.86 407.09)"  >
<path style="stroke: none; stroke-width: 1; stroke-dasharray: none; stroke-linecap: butt; stroke-dashoffset: 0; stroke-linejoin: miter; stroke-miterlimit: 4; fill: rgb(92,139,173); fill-rule: nonzero; opacity: 1;" vector-effect="non-scaling-stroke"  transform=" translate(-339.47, -189.07)" d="M 340.484467 185.003448 C 341.359924 186.567108 341.923737 188.038086 342.710388 190.124176 C 343.253143 191.837616 343.57312 192.935959 343.893066 194.034286 C 343.897858 194.823029 343.902649 195.611771 343.856873 196.795563 C 340.901581 192.025635 337.996887 186.860657 335.0401 181.349014 C 336.716309 182.305161 338.44458 183.607971 340.484467 185.003448 z" stroke-linecap="round" />
</g>
<g transform="matrix(2.17 0 0 2.17 769.98 621.65)"  >
<path style="stroke: none; stroke-width: 1; stroke-dasharray: none; stroke-linecap: butt; stroke-dashoffset: 0; stroke-linejoin: miter; stroke-miterlimit: 4; fill: rgb(76,168,230); fill-rule: nonzero; opacity: 1;" vector-effect="non-scaling-stroke"  transform=" translate(-356.61, -288.13)" d="M 352.985565 291.985168 C 354.092255 289.331543 355.210236 286.690765 356.903076 284.230957 C 358.295807 284.605835 359.113678 284.799774 359.992767 285.282776 C 360.111145 285.760284 360.168365 285.948761 360.225616 286.137238 C 360.225616 286.137238 360.192261 286.153412 359.869263 286.273285 C 359.084473 287.313751 358.622681 288.234314 358.160889 289.154907 C 357.585449 289.964203 357.01001 290.773529 355.819183 291.757202 C 354.475067 291.962433 353.746307 291.993256 353.017578 292.024078 C 353.017578 292.024078 352.996857 291.998047 352.985565 291.985168 z" stroke-linecap="round" />
</g>
<g transform="matrix(2.17 0 0 2.17 619.05 617.29)"  >
<path style="stroke: none; stroke-width: 1; stroke-dasharray: none; stroke-linecap: butt; stroke-dashoffset: 0; stroke-linejoin: miter; stroke-miterlimit: 4; fill: rgb(85,162,207); fill-rule: nonzero; opacity: 1;" vector-effect="non-scaling-stroke"  transform=" translate(-286.93, -286.11)" d="M 294.594788 285.19162 C 292.657471 285.858063 290.25531 286.440735 287.427795 287.033264 C 284.53064 286.833649 282.058838 286.624237 279.264099 286.1716 C 284.00412 285.654877 289.067017 285.381348 294.594788 285.19162 z" stroke-linecap="round" />
</g>
<g transform="matrix(2.17 0 0 2.17 707.18 583.36)"  >
<path style="stroke: none; stroke-width: 1; stroke-dasharray: none; stroke-linecap: butt; stroke-dashoffset: 0; stroke-linejoin: miter; stroke-miterlimit: 4; fill: rgb(85,159,212); fill-rule: nonzero; opacity: 1;" vector-effect="non-scaling-stroke"  transform=" translate(-327.61, -270.45)" d="M 330.994202 271.572693 C 328.869751 272.603027 326.744263 273.210938 324.232025 273.837189 C 326.01181 271.64386 328.178375 269.43219 330.640686 267.064362 C 330.955353 268.322235 330.974274 269.736237 330.994202 271.572693 z" stroke-linecap="round" />
</g>
<g transform="matrix(2.17 0 0 2.17 827.7 463.33)"  >
<path style="stroke: none; stroke-width: 1; stroke-dasharray: none; stroke-linecap: butt; stroke-dashoffset: 0; stroke-linejoin: miter; stroke-miterlimit: 4; fill: rgb(92,139,173); fill-rule: nonzero; opacity: 1;" vector-effect="non-scaling-stroke"  transform=" translate(-383.25, -215.04)" d="M 383.749115 219.764557 C 383.277161 217.025803 382.907593 213.83252 382.760437 210.307953 C 383.27243 213.087769 383.561951 216.198898 383.749115 219.764557 z" stroke-linecap="round" />
</g>
<g transform="matrix(2.17 0 0 2.17 498.01 644.11)"  >
<path style="stroke: none; stroke-width: 1; stroke-dasharray: none; stroke-linecap: butt; stroke-dashoffset: 0; stroke-linejoin: miter; stroke-miterlimit: 4; fill: rgb(85,162,207); fill-rule: nonzero; opacity: 1;" vector-effect="non-scaling-stroke"  transform=" translate(-231.05, -298.5)" d="M 232.635742 294.082031 C 231.880402 296.853668 230.829956 299.822815 229.460846 302.914917 C 230.208359 300.118439 231.274521 297.198944 232.635742 294.082031 z" stroke-linecap="round" />
</g>
<g transform="matrix(2.17 0 0 2.17 521.78 620.42)"  >
<path style="stroke: none; stroke-width: 1; stroke-dasharray: none; stroke-linecap: butt; stroke-dashoffset: 0; stroke-linejoin: miter; stroke-miterlimit: 4; fill: rgb(85,162,207); fill-rule: nonzero; opacity: 1;" vector-effect="non-scaling-stroke"  transform=" translate(-242.02, -287.56)" d="M 245.643463 286.129639 C 243.62265 287.12674 241.215103 288.064911 238.395126 288.994354 C 240.407379 288.013977 242.832047 287.042328 245.643463 286.129639 z" stroke-linecap="round" />
</g>
<g transform="matrix(2.17 0 0 2.17 827.81 488.89)"  >
<path style="stroke: none; stroke-width: 1; stroke-dasharray: none; stroke-linecap: butt; stroke-dashoffset: 0; stroke-linejoin: miter; stroke-miterlimit: 4; fill: rgb(92,139,173); fill-rule: nonzero; opacity: 1;" vector-effect="non-scaling-stroke"  transform=" translate(-383.31, -226.84)" d="M 383.250122 230.665405 C 383.046478 228.405197 383.064819 225.813599 383.361694 223.005341 C 383.584167 225.303802 383.528107 227.818893 383.250122 230.665405 z" stroke-linecap="round" />
</g>
<g transform="matrix(2.17 0 0 2.17 782.96 609.21)"  >
<path style="stroke: none; stroke-width: 1; stroke-dasharray: none; stroke-linecap: butt; stroke-dashoffset: 0; stroke-linejoin: miter; stroke-miterlimit: 4; fill: rgb(104,160,191); fill-rule: nonzero; opacity: 1;" vector-effect="non-scaling-stroke"  transform=" translate(-362.6, -282.39)" d="M 360.543488 286.044312 C 360.168365 285.948761 360.111145 285.760284 360.181335 285.006775 C 361.885651 282.537476 363.462646 280.633209 365.039612 278.728912 C 365.039612 278.728912 365.043304 278.994843 365.025818 279.12796 C 363.626007 281.49118 362.243683 283.721283 360.543488 286.044312 z" stroke-linecap="round" />
</g>
<g transform="matrix(2.17 0 0 2.17 753.48 644.08)"  >
<path style="stroke: none; stroke-width: 1; stroke-dasharray: none; stroke-linecap: butt; stroke-dashoffset: 0; stroke-linejoin: miter; stroke-miterlimit: 4; fill: rgb(104,160,191); fill-rule: nonzero; opacity: 1;" vector-effect="non-scaling-stroke"  transform=" translate(-348.99, -298.48)" d="M 346.364471 300.983398 C 347.774292 299.35965 349.515076 297.675629 351.614929 295.980469 C 350.214447 297.620575 348.454926 299.271851 346.364471 300.983398 z" stroke-linecap="round" />
</g>
<g transform="matrix(2.17 0 0 2.17 563.96 616.92)"  >
<path style="stroke: none; stroke-width: 1; stroke-dasharray: none; stroke-linecap: butt; stroke-dashoffset: 0; stroke-linejoin: miter; stroke-miterlimit: 4; fill: rgb(85,162,207); fill-rule: nonzero; opacity: 1;" vector-effect="non-scaling-stroke"  transform=" translate(-261.49, -285.94)" d="M 264.741028 285.724792 C 262.886261 286.079895 260.716034 286.238525 258.244446 286.16098 C 260.103912 285.792633 262.264771 285.660461 264.741028 285.724792 z" stroke-linecap="round" />
</g>
<g transform="matrix(2.17 0 0 2.17 667.5 608.04)"  >
<path style="stroke: none; stroke-width: 1; stroke-dasharray: none; stroke-linecap: butt; stroke-dashoffset: 0; stroke-linejoin: miter; stroke-miterlimit: 4; fill: rgb(85,162,207); fill-rule: nonzero; opacity: 1;" vector-effect="non-scaling-stroke"  transform=" translate(-309.3, -281.84)" d="M 312.606201 279.940369 C 310.77182 281.180298 308.578918 282.472229 305.985809 283.744202 C 307.806305 282.480286 310.027008 281.236328 312.606201 279.940369 z" stroke-linecap="round" />
</g>
<g transform="matrix(2.17 0 0 2.17 801.46 367.69)"  >
<path style="stroke: none; stroke-width: 1; stroke-dasharray: none; stroke-linecap: butt; stroke-dashoffset: 0; stroke-linejoin: miter; stroke-miterlimit: 4; fill: rgb(92,139,173); fill-rule: nonzero; opacity: 1;" vector-effect="non-scaling-stroke"  transform=" translate(-371.14, -170.88)" d="M 372.986328 173.636688 C 371.773895 172.157211 370.517639 170.330139 369.289917 168.12587 C 370.526489 169.59549 371.734497 171.442291 372.986328 173.636688 z" stroke-linecap="round" />
</g>
<g transform="matrix(2.17 0 0 2.17 694.43 593.86)"  >
<path style="stroke: none; stroke-width: 1; stroke-dasharray: none; stroke-linecap: butt; stroke-dashoffset: 0; stroke-linejoin: miter; stroke-miterlimit: 4; fill: rgb(85,162,207); fill-rule: nonzero; opacity: 1;" vector-effect="non-scaling-stroke"  transform=" translate(-321.73, -275.3)" d="M 323.478516 273.833069 C 322.677643 274.824493 321.536224 275.830353 319.979858 276.759827 C 320.75592 275.738098 321.94693 274.792786 323.478516 273.833069 z" stroke-linecap="round" />
</g>
<g transform="matrix(2.17 0 0 2.17 815.29 548.8)"  >
<path style="stroke: none; stroke-width: 1; stroke-dasharray: none; stroke-linecap: butt; stroke-dashoffset: 0; stroke-linejoin: miter; stroke-miterlimit: 4; fill: rgb(92,139,173); fill-rule: nonzero; opacity: 1;" vector-effect="non-scaling-stroke"  transform=" translate(-377.53, -254.49)" d="M 376.534241 256.987579 C 376.891602 255.462845 377.549957 253.803024 378.515869 252.00116 C 378.160706 253.52356 377.497986 255.188019 376.534241 256.987579 z" stroke-linecap="round" />
</g>
<g transform="matrix(2.17 0 0 2.17 740.74 654.1)"  >
<path style="stroke: none; stroke-width: 1; stroke-dasharray: none; stroke-linecap: butt; stroke-dashoffset: 0; stroke-linejoin: miter; stroke-miterlimit: 4; fill: rgb(104,160,191); fill-rule: nonzero; opacity: 1;" vector-effect="non-scaling-stroke"  transform=" translate(-343.11, -303.11)" d="M 341.34906 304.971863 C 342.18277 303.762146 343.347748 302.497009 344.867737 301.245544 C 344.041992 302.478333 342.861145 303.697388 341.34906 304.971863 z" stroke-linecap="round" />
</g>
<g transform="matrix(2.17 0 0 2.17 764.15 634.12)"  >
<path style="stroke: none; stroke-width: 1; stroke-dasharray: none; stroke-linecap: butt; stroke-dashoffset: 0; stroke-linejoin: miter; stroke-miterlimit: 4; fill: rgb(104,160,191); fill-rule: nonzero; opacity: 1;" vector-effect="non-scaling-stroke"  transform=" translate(-353.91, -293.88)" d="M 352.878204 292.338959 C 353.746307 291.993256 354.475067 291.962433 355.567505 291.92627 C 354.805664 293.183472 353.680054 294.445984 352.261841 295.84137 C 352.225739 294.867432 352.4823 293.760651 352.878204 292.338959 z" stroke-linecap="round" />
</g>
<g transform="matrix(2.17 0 0 2.17 509.48 627.76)"  >
<path style="stroke: none; stroke-width: 1; stroke-dasharray: none; stroke-linecap: butt; stroke-dashoffset: 0; stroke-linejoin: miter; stroke-miterlimit: 4; fill: rgb(85,162,207); fill-rule: nonzero; opacity: 1;" vector-effect="non-scaling-stroke"  transform=" translate(-236.34, -290.95)" d="M 237.687057 289.117493 C 237.11731 290.248047 236.248917 291.514038 234.999176 292.77948 C 235.541351 291.603577 236.464874 290.428253 237.687057 289.117493 z" stroke-linecap="round" />
</g>
<g transform="matrix(2.17 0 0 2.17 824.57 510.41)"  >
<path style="stroke: none; stroke-width: 1; stroke-dasharray: none; stroke-linecap: butt; stroke-dashoffset: 0; stroke-linejoin: miter; stroke-miterlimit: 4; fill: rgb(92,139,173); fill-rule: nonzero; opacity: 1;" vector-effect="non-scaling-stroke"  transform=" translate(-381.81, -236.77)" d="M 381.088623 235.380341 C 381.450806 234.97702 381.811005 234.926987 382.437683 234.828186 C 382.612274 235.994919 382.520416 237.210419 382.207397 238.718857 C 381.686371 237.919067 381.386505 236.826355 381.088623 235.380341 z" stroke-linecap="round" />
</g>
<g transform="matrix(2.17 0 0 2.17 775.5 620.62)"  >
<path style="stroke: none; stroke-width: 1; stroke-dasharray: none; stroke-linecap: butt; stroke-dashoffset: 0; stroke-linejoin: miter; stroke-miterlimit: 4; fill: rgb(104,160,191); fill-rule: nonzero; opacity: 1;" vector-effect="non-scaling-stroke"  transform=" translate(-359.16, -287.65)" d="M 358.460938 289.031586 C 358.622681 288.234314 359.084473 287.313751 359.850708 286.273254 C 359.69046 287.071655 359.225708 287.98996 358.460938 289.031586 z" stroke-linecap="round" />
</g>
<g transform="matrix(2.17 0 0 2.17 727.39 557.45)"  >
<path style="stroke: none; stroke-width: 1; stroke-dasharray: none; stroke-linecap: butt; stroke-dashoffset: 0; stroke-linejoin: miter; stroke-miterlimit: 4; fill: rgb(85,159,212); fill-rule: nonzero; opacity: 1;" vector-effect="non-scaling-stroke"  transform=" translate(-336.94, -258.49)" d="M 337.63678 257.113708 C 337.46051 257.895966 337.021515 258.841614 336.252136 259.859741 C 336.405823 259.047211 336.889923 258.16217 337.63678 257.113708 z" stroke-linecap="round" />
</g>
<g transform="matrix(2.17 0 0 2.17 495.68 667.24)"  >
<path style="stroke: none; stroke-width: 1; stroke-dasharray: none; stroke-linecap: butt; stroke-dashoffset: 0; stroke-linejoin: miter; stroke-miterlimit: 4; fill: rgb(85,162,207); fill-rule: nonzero; opacity: 1;" vector-effect="non-scaling-stroke"  transform=" translate(-229.97, -309.18)" d="M 229.193207 308.254456 C 229.714432 308.548431 230.235031 309.156586 230.747375 310.097412 C 230.223587 309.809601 229.708099 309.189117 229.193207 308.254456 z" stroke-linecap="round" />
</g>
<g transform="matrix(2.17 0 0 2.17 821.51 532.27)"  >
<path style="stroke: none; stroke-width: 1; stroke-dasharray: none; stroke-linecap: butt; stroke-dashoffset: 0; stroke-linejoin: miter; stroke-miterlimit: 4; fill: rgb(92,139,173); fill-rule: nonzero; opacity: 1;" vector-effect="non-scaling-stroke"  transform=" translate(-380.4, -246.86)" d="M 380.223846 247.799988 C 380.120972 247.354477 380.227905 246.689209 380.566589 245.927551 C 380.676819 246.4142 380.555267 246.997208 380.223846 247.799988 z" stroke-linecap="round" />
</g>
<g transform="matrix(2.17 0 0 2.17 649.43 614.02)"  >
<path style="stroke: none; stroke-width: 1; stroke-dasharray: none; stroke-linecap: butt; stroke-dashoffset: 0; stroke-linejoin: miter; stroke-miterlimit: 4; fill: rgb(85,162,207); fill-rule: nonzero; opacity: 1;" vector-effect="non-scaling-stroke"  transform=" translate(-300.95, -284.61)" d="M 301.768616 284.155273 C 301.47757 284.531525 300.896484 284.88446 300.134949 285.058594 C 300.462524 284.630463 300.970551 284.381226 301.768616 284.155273 z" stroke-linecap="round" />
</g>
<g transform="matrix(2.17 0 0 2.17 810.68 560.55)"  >
<path style="stroke: none; stroke-width: 1; stroke-dasharray: none; stroke-linecap: butt; stroke-dashoffset: 0; stroke-linejoin: miter; stroke-miterlimit: 4; fill: rgb(92,139,173); fill-rule: nonzero; opacity: 1;" vector-effect="non-scaling-stroke"  transform=" translate(-375.39, -259.92)" d="M 375.180786 260.795227 C 375.09787 260.355835 375.233704 259.727325 375.6073 259.042358 C 375.696564 259.52594 375.548035 260.06604 375.180786 260.795227 z" stroke-linecap="round" />
</g>
<g transform="matrix(2.17 0 0 2.17 719.82 569.47)"  >
<path style="stroke: none; stroke-width: 1; stroke-dasharray: none; stroke-linecap: butt; stroke-dashoffset: 0; stroke-linejoin: miter; stroke-miterlimit: 4; fill: rgb(85,159,212); fill-rule: nonzero; opacity: 1;" vector-effect="non-scaling-stroke"  transform=" translate(-333.45, -264.04)" d="M 333.746216 263.175903 C 333.786835 263.622131 333.604919 264.248657 333.15387 264.897522 C 333.097687 264.398651 333.310699 263.877411 333.746216 263.175903 z" stroke-linecap="round" />
</g>
<g transform="matrix(2.17 0 0 2.17 805.49 573.78)"  >
<path style="stroke: none; stroke-width: 1; stroke-dasharray: none; stroke-linecap: butt; stroke-dashoffset: 0; stroke-linejoin: miter; stroke-miterlimit: 4; fill: rgb(92,139,173); fill-rule: nonzero; opacity: 1;" vector-effect="non-scaling-stroke"  transform=" translate(-373, -266.03)" d="M 372.473755 267.032898 C 372.546936 266.473022 372.899811 265.803772 373.528259 265.025787 C 373.453705 265.585876 373.103577 266.2547 372.473755 267.032898 z" stroke-linecap="round" />
</g>
<g transform="matrix(2.17 0 0 2.17 681.55 601.55)"  >
<path style="stroke: none; stroke-width: 1; stroke-dasharray: none; stroke-linecap: butt; stroke-dashoffset: 0; stroke-linejoin: miter; stroke-miterlimit: 4; fill: rgb(85,162,207); fill-rule: nonzero; opacity: 1;" vector-effect="non-scaling-stroke"  transform=" translate(-315.78, -278.85)" d="M 316.653198 277.984558 C 316.390564 278.518616 315.823517 279.120361 314.909119 279.710449 C 315.15741 279.149902 315.753082 278.601074 316.653198 277.984558 z" stroke-linecap="round" />
</g>
<g transform="matrix(2.17 0 0 2.17 743.77 429.58)"  >
<path style="stroke: none; stroke-width: 1; stroke-dasharray: none; stroke-linecap: butt; stroke-dashoffset: 0; stroke-linejoin: miter; stroke-miterlimit: 4; fill: rgb(92,139,173); fill-rule: nonzero; opacity: 1;" vector-effect="non-scaling-stroke"  transform=" translate(-344.51, -199.46)" d="M 343.987976 198.261383 C 344.338654 198.718689 344.677246 199.517853 345.026489 200.652954 C 344.683411 200.19368 344.32962 199.398468 343.987976 198.261383 z" stroke-linecap="round" />
</g>
<g transform="matrix(2.17 0 0 2.17 745.74 435.21)"  >
<path style="stroke: none; stroke-width: 1; stroke-dasharray: none; stroke-linecap: butt; stroke-dashoffset: 0; stroke-linejoin: miter; stroke-miterlimit: 4; fill: rgb(92,139,173); fill-rule: nonzero; opacity: 1;" vector-effect="non-scaling-stroke"  transform=" translate(-345.42, -202.05)" d="M 345.048523 201.263611 C 345.29187 201.493958 345.558655 202.016129 345.782135 202.846237 C 345.51651 202.621277 345.29425 202.088364 345.048523 201.263611 z" stroke-linecap="round" />
</g>
<g transform="matrix(2.17 0 0 2.17 819.36 540.03)"  >
<path style="stroke: none; stroke-width: 1; stroke-dasharray: none; stroke-linecap: butt; stroke-dashoffset: 0; stroke-linejoin: miter; stroke-miterlimit: 4; fill: rgb(92,139,173); fill-rule: nonzero; opacity: 1;" vector-effect="non-scaling-stroke"  transform=" translate(-379.4, -250.45)" d="M 379.1875 250.868652 C 379.073181 250.701279 379.217438 250.425537 379.600861 250.026306 C 379.741638 250.199539 379.610321 250.485352 379.1875 250.868652 z" stroke-linecap="round" />
</g>
<g transform="matrix(2.17 0 0 2.17 747.84 440.65)"  >
<path style="stroke: none; stroke-width: 1; stroke-dasharray: none; stroke-linecap: butt; stroke-dashoffset: 0; stroke-linejoin: miter; stroke-miterlimit: 4; fill: rgb(92,139,173); fill-rule: nonzero; opacity: 1;" vector-effect="non-scaling-stroke"  transform=" translate(-346.38, -204.57)" d="M 346.050781 204.210846 C 346.188904 204.219376 346.430573 204.444839 346.716248 204.919815 C 346.523041 204.950897 346.321106 204.70372 346.050781 204.210846 z" stroke-linecap="round" />
</g>
<g transform="matrix(2.17 0 0 2.17 537.63 298.98)"  >
<path style="stroke: none; stroke-width: 1; stroke-dasharray: none; stroke-linecap: butt; stroke-dashoffset: 0; stroke-linejoin: miter; stroke-miterlimit: 4; fill: rgb(45,139,220); fill-rule: nonzero; opacity: 1;" vector-effect="non-scaling-stroke"  transform=" translate(-249.34, -139.16)" d="M 338.087585 134.596985 C 338.482178 136.426102 338.437408 138.233673 339.286163 139.379211 C 340.328583 140.786118 342.123901 141.631271 343.582275 142.734528 C 350.371277 147.870529 349.259552 156.01001 341.206238 159.215393 C 340.167999 159.628632 338.64267 158.818176 337.342957 158.57457 C 337.714142 157.237625 337.735168 155.602417 338.551208 154.64444 C 339.43457 153.607498 341.05957 153.202347 343.031097 152.171265 C 340.31604 149.534149 337.986603 147.121353 335.464233 144.930679 C 334.858856 144.404907 333.158386 144.152115 332.73468 144.56575 C 330.019958 147.215912 327.576996 150.141617 324.926605 152.86171 C 323.639832 154.182297 322.097443 155.253815 320.670776 156.438095 C 320.207184 155.93042 319.743622 155.422729 319.280029 154.915054 C 320.30722 153.167953 321.334412 151.420837 322.717529 149.068329 C 321.442108 148.969208 320.38623 148.615601 319.520813 148.881653 C 318.116119 149.313492 316.846527 150.701294 315.501923 150.726517 C 308.03421 150.866714 300.561066 150.714279 293.089722 150.671494 C 292.106171 150.665863 291.107666 150.835205 290.140991 150.718063 C 285.122833 150.10997 280.127136 149.221619 275.09317 148.882996 C 272.909363 148.736099 270.670471 149.875748 268.42511 150.073395 C 264.518402 150.417328 260.588898 150.577866 256.666046 150.643845 C 251.21727 150.735489 245.765442 150.630203 240.315552 150.679092 C 231.832687 150.755203 223.347855 151.072311 214.868423 150.955399 C 203.408737 150.797394 191.951904 150.364883 180.498093 149.936478 C 179.087204 149.883698 177.516815 149.419479 176.337463 148.656021 C 171.065872 145.243469 170.367081 145.325073 167.262497 150.651108 C 166.765884 151.503067 166.481613 152.478821 165.651093 153.737122 C 162.793701 153.062424 160.384384 152.047943 157.986786 150.650024 C 158.75296 143.875214 158.231522 143.160706 151.939514 141.710754 C 151.898285 141.015671 151.88887 140.617661 151.911743 139.815521 C 151.607269 137.929352 151.270523 136.447296 150.931458 134.531586 C 150.83223 132.648697 150.735321 131.199478 150.638412 129.750259 C 150.753677 129.398804 150.868958 129.047333 151.376328 128.304276 C 156.914459 121.414207 163.917542 118.938782 171.895554 118.98896 C 214.005432 119.253777 256.114746 119.610153 298.224548 119.88662 C 299.83551 119.897194 301.449677 119.414078 303.062347 119.161026 C 303.438293 119.191666 303.81427 119.222305 304.655121 119.572151 C 313.306061 123.148361 321.495239 126.397575 329.6763 129.667023 C 332.202728 130.676682 334.707092 131.74144 337.221558 132.780975 C 337.221558 132.780975 337.566772 132.892014 337.73645 132.953308 C 337.95224 133.437012 337.998352 133.859436 338.087585 134.596985 z" stroke-linecap="round" />
</g>
<g transform="matrix(2.17 0 0 2.17 489.47 262.94)"  >
<path style="stroke: none; stroke-width: 1; stroke-dasharray: none; stroke-linecap: butt; stroke-dashoffset: 0; stroke-linejoin: miter; stroke-miterlimit: 4; fill: rgb(92,139,173); fill-rule: nonzero; opacity: 1;" vector-effect="non-scaling-stroke"  transform=" translate(-227.1, -122.52)" d="M 302.743744 118.913879 C 301.449677 119.414078 299.83551 119.897194 298.224548 119.88662 C 256.114746 119.610153 214.005432 119.253777 171.895554 118.98896 C 163.917542 118.938782 156.914459 121.414207 151.463593 128.040863 C 152.94426 121.545967 159.196381 117.157127 167.518097 117.0662 C 178.981155 116.940956 190.446671 117.04483 201.911133 117.041748 C 230.157074 117.034142 258.403442 116.937798 286.64856 117.085876 C 291.910034 117.113457 297.166412 118.114792 302.743744 118.913879 z" stroke-linecap="round" />
</g>
<g transform="matrix(2.17 0 0 2.17 692.88 270.55)"  >
<path style="stroke: none; stroke-width: 1; stroke-dasharray: none; stroke-linecap: butt; stroke-dashoffset: 0; stroke-linejoin: miter; stroke-miterlimit: 4; fill: rgb(92,139,173); fill-rule: nonzero; opacity: 1;" vector-effect="non-scaling-stroke"  transform=" translate(-321.01, -126.04)" d="M 337.083527 132.475739 C 334.707092 131.74144 332.202728 130.676682 329.6763 129.667023 C 321.495239 126.397575 313.306061 123.148361 304.937012 119.596283 C 316.517059 121.008034 327.426727 124.849648 337.083527 132.475739 z" stroke-linecap="round" />
</g>
<g transform="matrix(2.17 0 0 2.17 338.69 306.67)"  >
<path style="stroke: none; stroke-width: 1; stroke-dasharray: none; stroke-linecap: butt; stroke-dashoffset: 0; stroke-linejoin: miter; stroke-miterlimit: 4; fill: rgb(92,139,173); fill-rule: nonzero; opacity: 1;" vector-effect="non-scaling-stroke"  transform=" translate(-157.49, -142.71)" d="M 150.346375 129.953705 C 150.735321 131.199478 150.83223 132.648697 150.707092 134.803757 C 150.949844 137.07962 151.414658 138.649628 151.879471 140.21965 C 151.88887 140.617661 151.898285 141.015671 151.948502 142.073654 C 153.984558 145.500244 155.979813 148.266846 157.975067 151.033463 C 160.384384 152.047943 162.793701 153.062424 165.582733 154.094818 C 166.02739 154.463516 166.092346 154.814316 166.216522 155.424286 C 153.886337 156.376801 145.02652 142.434845 150.346375 129.953705 z" stroke-linecap="round" />
</g>
<g transform="matrix(2.17 0 0 2.17 764.36 328.93)"  >
<path style="stroke: none; stroke-width: 1; stroke-dasharray: none; stroke-linecap: butt; stroke-dashoffset: 0; stroke-linejoin: miter; stroke-miterlimit: 4; fill: rgb(45,139,220); fill-rule: nonzero; opacity: 1;" vector-effect="non-scaling-stroke"  transform=" translate(-354.01, -152.99)" d="M 353.275208 151.642975 C 353.950684 152.360794 354.363495 153.086685 354.776306 153.812576 C 354.36264 153.985413 353.948944 154.158249 353.535278 154.331085 C 353.361023 153.437729 353.186768 152.544388 353.275208 151.642975 z" stroke-linecap="round" />
</g>
<g transform="matrix(2.17 0 0 2.17 744.04 413.81)"  >
<path style="stroke: none; stroke-width: 1; stroke-dasharray: none; stroke-linecap: butt; stroke-dashoffset: 0; stroke-linejoin: miter; stroke-miterlimit: 4; fill: rgb(50,143,220); fill-rule: nonzero; opacity: 1;" vector-effect="non-scaling-stroke"  transform=" translate(-344.63, -192.17)" d="M 344.223083 193.962524 C 343.57312 192.935959 343.253143 191.837616 342.920837 190.387115 C 344.052155 190.508636 345.195831 190.982346 346.339478 191.456055 C 345.743988 192.267624 345.148529 193.079193 344.223083 193.962524 z" stroke-linecap="round" />
</g>
<g transform="matrix(2.17 0 0 2.17 779.66 603.2)"  >
<path style="stroke: none; stroke-width: 1; stroke-dasharray: none; stroke-linecap: butt; stroke-dashoffset: 0; stroke-linejoin: miter; stroke-miterlimit: 4; fill: rgb(64,166,225); fill-rule: nonzero; opacity: 1;" vector-effect="non-scaling-stroke"  transform=" translate(-361.08, -279.61)" d="M 365.026428 278.377747 C 363.462646 280.633209 361.885651 282.537476 360.120117 284.717712 C 359.113678 284.799774 358.295807 284.605835 357.231812 284.206055 C 356.635864 279.028778 358.442596 275.600922 364.256592 274.481903 C 364.512177 275.679169 364.762695 276.852875 365.026428 278.377747 z" stroke-linecap="round" />
</g>
<g transform="matrix(2.17 0 0 2.17 758.87 604.68)"  >
<path style="stroke: none; stroke-width: 1; stroke-dasharray: none; stroke-linecap: butt; stroke-dashoffset: 0; stroke-linejoin: miter; stroke-miterlimit: 4; fill: rgb(76,168,230); fill-rule: nonzero; opacity: 1;" vector-effect="non-scaling-stroke"  transform=" translate(-351.48, -280.29)" d="M 352.457275 281.951172 C 351.625061 281.832184 350.530701 281.545654 350.475952 281.124176 C 350.373199 280.332703 350.871429 279.463226 352.307404 278.632538 C 352.426392 279.662598 352.54541 280.692657 352.457275 281.951172 z" stroke-linecap="round" />
</g>
<g transform="matrix(2.17 0 0 2.17 333.55 314.9)"  >
<path style="stroke: none; stroke-width: 1; stroke-dasharray: none; stroke-linecap: butt; stroke-dashoffset: 0; stroke-linejoin: miter; stroke-miterlimit: 4; fill: rgb(51,138,217); fill-rule: nonzero; opacity: 1;" vector-effect="non-scaling-stroke"  transform=" translate(-155.12, -146.51)" d="M 157.986786 150.650024 C 155.979813 148.266846 153.984558 145.500244 151.980316 142.370728 C 158.231522 143.160706 158.75296 143.875214 157.986786 150.650024 z" stroke-linecap="round" />
</g>
<g transform="matrix(2.17 0 0 2.17 325.3 295.44)"  >
<path style="stroke: none; stroke-width: 1; stroke-dasharray: none; stroke-linecap: butt; stroke-dashoffset: 0; stroke-linejoin: miter; stroke-miterlimit: 4; fill: rgb(51,138,217); fill-rule: nonzero; opacity: 1;" vector-effect="non-scaling-stroke"  transform=" translate(-151.31, -137.53)" d="M 151.911743 139.815521 C 151.414658 138.649628 150.949844 137.07962 150.709396 135.237427 C 151.270523 136.447296 151.607269 137.929352 151.911743 139.815521 z" stroke-linecap="round" />
</g>
</svg>